<svg xmlns="http://www.w3.org/2000/svg" xmlns:xlink="http://www.w3.org/1999/xlink" width="1280" height="800" viewBox="0 0 1280 800"><defs><style>.cls-1,.cls-4{fill:none;}.cls-2,.cls-5{fill:#0f1548;}.cls-2,.cls-3,.cls-4{stroke:#000;stroke-miterlimit:10;stroke-width:0.5px;}.cls-3{fill:#d3ebf1;}.cls-6{clip-path:url(#clip-path);}.cls-7{fill:#1d1d1b;}.cls-8{clip-path:url(#clip-path-2);}.cls-9{clip-path:url(#clip-path-3);}.cls-10{clip-path:url(#clip-path-4);}</style><clipPath id="clip-path"><rect class="cls-1" x="1160" y="348.85" width="24.9" height="46.15"/></clipPath><clipPath id="clip-path-2"><rect class="cls-1" x="1152" y="245.6" width="31" height="53.4"/></clipPath><clipPath id="clip-path-3"><rect class="cls-1" x="1148.13" y="152" width="31.3" height="54"/></clipPath><clipPath id="clip-path-4"><rect class="cls-1" x="1139.3" y="55" width="35.46" height="55"/></clipPath></defs><title>HUSET_group</title><g id="Kælderen"><g id="Kælderen-2" data-name="Kælderen"><polygon class="cls-2" points="117.5 659.5 318.5 545.5 474.5 545.5 399.5 599.5 572.5 602.5 504.5 659.5 117.5 659.5"/><rect class="cls-3" x="117.5" y="659.5" width="387.5" height="8"/><polygon class="cls-3" points="504.5 667.5 571.5 609.5 571.5 602.5 504.5 659.5 504.5 667.5"/><polygon class="cls-3" points="399.5 599.5 474.5 545.5 474.5 555.5 414.43 599.76 399.5 599.5"/></g></g><g id="Stuen"><g id="Stuen-2" data-name="Stuen"><polygon class="cls-3" points="117 582.18 345.41 582.18 450 513.66 238.42 513.66 117 582.18"/><rect class="cls-3" x="117" y="582.18" width="228.41" height="10.82"/><polygon class="cls-3" points="344.81 582.78 449.43 514.03 449.4 522.67 344.81 593 344.81 582.78"/></g></g><g id="Salon_K" data-name="Salon K"><g id="SalonK"><polygon class="cls-2" points="117.5 505.5 318.5 391.5 474.5 391.5 399.5 445.5 572.5 448.5 504.5 505.5 117.5 505.5"/><rect class="cls-3" x="117.5" y="505.5" width="387.5" height="8"/><polygon class="cls-3" points="504.5 513.5 571.5 455.5 571.5 448.5 504.5 505.5 504.5 513.5"/><polygon class="cls-3" points="399.5 445.5 474.5 391.5 474.5 401.5 414.43 445.76 399.5 445.5"/></g></g><g id="Teaterhuset"><g id="Teaterhuset-2" data-name="Teaterhuset"><polygon class="cls-3" points="120 428 310 428 397 371 221 371 120 428"/><rect class="cls-3" x="120" y="428" width="190" height="9"/><polygon class="cls-3" points="309.5 428.5 396.53 371.31 396.5 378.5 309.5 437 309.5 428.5"/></g></g><g id="Gårdhaven"><g id="Gårdhaven-2" data-name="Gårdhaven"><polygon class="cls-3" points="468.5 580.5 549.5 522.5 786.5 522.5 733.5 580.5 468.5 580.5"/><rect class="cls-3" x="469" y="580" width="264" height="8"/><polygon class="cls-3" points="732.5 588.5 786.5 529.5 786.5 522.5 732.5 580.5 732.5 588.5"/></g></g><g id="Indgang"><g id="Indgangen"><rect class="cls-3" x="703.98" y="659" width="253.62" height="8"/><polygon class="cls-3" points="957.12 667.5 1009 608.5 1009 601.5 957.12 659.5 957.12 667.5"/><polygon class="cls-3" points="790.65 601.5 853 523 853 532 799 601.5 790.65 601.5"/><polygon class="cls-3" points="703.5 659.5 825.5 522.5 852.5 522.5 790.5 601.5 1008.5 601.5 957.5 659.5 703.5 659.5"/></g></g><g id="Bastard"><g id="Bastard-2" data-name="Bastard"><polygon class="cls-3" points="736.5 498.5 804.5 441.5 1094.5 442.5 1055.5 501.5 736.5 498.5"/><rect class="cls-3" x="736.98" y="498" width="318.02" height="8"/><polygon class="cls-3" points="1055.5 497.5 1094.5 442.5 1094.5 449.5 1055.5 505.5 1055.5 497.5"/><polygon class="cls-3" points="971.5 478.5 997.5 453.5 1056.5 453.5 1037.5 481.5 968.5 481.5 971.5 478.5"/><polyline class="cls-4" points="997.5 454 997.5 463.5 1005.5 463.5 1005.5 473.5 1015.5 473.5 1015.5 481.5"/><line class="cls-4" x1="1005.5" y1="473.5" x2="996.5" y2="481.5"/><line class="cls-4" x1="997.5" y1="463.5" x2="977.5" y2="481.5"/><line class="cls-4" x1="1015.5" y1="473.5" x2="1006.5" y2="481.5"/><line class="cls-4" x1="1005.32" y1="463.8" x2="987.5" y2="481.5"/></g></g><g id="Stardust"><g id="Stardust-2" data-name="Stardust"><polygon class="cls-5" points="667.5 409.86 750.41 340.36 1104 341.58 1056.45 413.51 667.5 409.86"/><rect class="cls-3" x="668.09" y="409.25" width="387.75" height="9.75"/><polygon class="cls-3" points="1056.45 408.64 1104 341.58 1104 350.11 1056.45 418.39 1056.45 408.64"/><polygon class="cls-3" points="954.03 385.47 985.73 354.99 1057.67 354.99 1034.5 389.13 950.37 389.13 954.03 385.47"/><polyline class="cls-3" points="985.73 355.6 985.73 367.18 995.49 367.18 995.49 379.37 1007.68 379.37 1007.68 389.13"/><line class="cls-4" x1="995.48" y1="379.37" x2="984.51" y2="389.13"/><line class="cls-4" x1="985.73" y1="367.18" x2="961.34" y2="389.13"/><line class="cls-4" x1="1007.68" y1="379.37" x2="996.7" y2="389.13"/><line class="cls-4" x1="995.26" y1="367.54" x2="973.54" y2="389.13"/></g></g><g id="Biografen"><g id="Biografen-2" data-name="Biografen"><polygon class="cls-5" points="683.5 309.86 766.41 240.36 1120 241.58 1072.45 313.51 683.5 309.86"/><rect class="cls-3" x="684.09" y="309.25" width="387.75" height="9.75"/><polygon class="cls-3" points="1072.45 308.64 1120 241.58 1120 250.11 1072.45 318.39 1072.45 308.64"/><polygon class="cls-3" points="970.03 285.47 1001.73 254.99 1073.67 254.99 1050.5 289.13 966.37 289.13 970.03 285.47"/><polyline class="cls-4" points="1001.73 255.6 1001.73 267.18 1011.49 267.18 1011.49 279.37 1023.68 279.37 1023.68 289.13"/><line class="cls-4" x1="1011.48" y1="279.37" x2="1000.51" y2="289.13"/><line class="cls-4" x1="1001.73" y1="267.18" x2="977.34" y2="289.13"/><line class="cls-4" x1="1023.68" y1="279.37" x2="1012.7" y2="289.13"/><line class="cls-4" x1="1011.26" y1="267.54" x2="989.54" y2="289.13"/></g></g><g id="Musikcafeen"><g id="Musikcafeen-2" data-name="Musikcafeen"><polygon class="cls-5" points="677.5 216.85 760.41 147.36 1114 148.58 1066.45 220.51 677.5 216.85"/><rect class="cls-3" x="678.09" y="216.25" width="387.75" height="9.75"/><polygon class="cls-3" points="1066.45 215.64 1114 148.58 1114 157.11 1066.45 225.39 1066.45 215.64"/><polygon class="cls-3" points="964.03 192.47 995.73 161.99 1067.67 161.99 1044.5 196.13 960.37 196.13 964.03 192.47"/><polyline class="cls-4" points="995.73 162.6 995.73 174.18 1005.49 174.18 1005.49 186.37 1017.68 186.37 1017.68 196.13"/><line class="cls-4" x1="1005.48" y1="186.37" x2="994.51" y2="196.13"/><line class="cls-4" x1="995.73" y1="174.18" x2="971.34" y2="196.13"/><line class="cls-4" x1="1017.68" y1="186.37" x2="1006.7" y2="196.13"/><line class="cls-4" x1="1005.26" y1="174.54" x2="983.54" y2="196.13"/></g></g><g id="Xenon"><g id="Xenon-2" data-name="Xenon"><polygon class="cls-5" points="677.5 122.86 760.41 53.36 1114 54.58 1066.45 126.51 677.5 122.86"/><rect class="cls-3" x="678.09" y="122.25" width="387.75" height="9.75"/><polygon class="cls-3" points="1066.45 121.64 1114 54.58 1114 63.11 1066.45 131.39 1066.45 121.64"/><polygon class="cls-3" points="964.03 98.47 995.73 67.99 1067.67 67.99 1044.5 102.13 960.37 102.13 964.03 98.47"/><polyline class="cls-4" points="995.73 68.6 995.73 80.18 1005.49 80.18 1005.49 92.37 1017.68 92.37 1017.68 102.13"/><line class="cls-4" x1="1005.48" y1="92.37" x2="994.51" y2="102.13"/><line class="cls-4" x1="995.73" y1="80.18" x2="971.34" y2="102.13"/><line class="cls-4" x1="1017.68" y1="92.37" x2="1006.7" y2="102.13"/><line class="cls-4" x1="1005.26" y1="80.54" x2="983.54" y2="102.13"/></g></g><g id="_1_sal" data-name="1 sal"><g id="_1" data-name="1"><g class="cls-6"><path class="cls-7" d="M1184.3,395h-10.51a.6.6,0,0,1,0-1.2h9.92v-4.2h-8.49a.6.6,0,0,1-.6-.6V349.45a.6.6,0,1,1,1.2,0V388.4h8.48a.6.6,0,0,1,.6.6v5.4a.6.6,0,0,1-.6.6"/><path class="cls-7" d="M1171.06,395H1160.6a.6.6,0,0,1-.6-.6V389a.6.6,0,0,1,.6-.6h8.48V355.45h-7.28a.6.6,0,0,1-.6-.6v-5.4a.6.6,0,0,1,.6-.6h10.72a.6.6,0,0,1,0,1.2h-10.13v4.2h7.29a.6.6,0,0,1,.6.6V389a.6.6,0,0,1-.6.6h-8.48v4.2h9.86a.6.6,0,1,1,0,1.2"/></g></g></g><g id="_2_sal" data-name="2 sal"><g id="_2" data-name="2"><g class="cls-8"><path class="cls-7" d="M1159.63,292.68h0a.68.68,0,0,1-.65-.72c.18-3.43,1.21-4.72,3.89-7.25l13.57-13.42c3.15-3,4.83-7.4,4.81-10.05v-.05a13.69,13.69,0,0,0-3.71-10.11,13.15,13.15,0,0,0-9.65-4.1,13.55,13.55,0,0,0-13.56,12.77h5.35a8.5,8.5,0,0,1,6.45-7.22.69.69,0,1,1,.34,1.34,7.06,7.06,0,0,0-5.48,6.61.68.68,0,0,1-.69.64h-6.67a.68.68,0,0,1-.69-.68,14.92,14.92,0,0,1,14.95-14.84,14.5,14.5,0,0,1,10.65,4.53,15,15,0,0,1,4.08,11.12c0,3-1.77,7.77-5.23,11l-13.57,13.42c-2.63,2.49-3.31,3.44-3.47,6.33a.68.68,0,0,1-.68.65m22.68,6.32h-29.62a.65.65,0,0,1-.49-.21.7.7,0,0,1-.2-.5c.3-11.89,2.5-14.11,5.55-17.2.24-.24.49-.48.73-.74l13.16-13a9.14,9.14,0,0,0,3.07-6.5,6.7,6.7,0,0,0-5.23-7.08.69.69,0,0,1-.53-.82.68.68,0,0,1,.81-.53,8.09,8.09,0,0,1,6.33,8.52c-.1,2-.6,4.46-3.48,7.39l-13.15,13-.73.74c-2.87,2.9-4.79,4.84-5.13,15.56h28.22v-4.94h-18.77a.69.69,0,1,1,0-1.38h19.46a.69.69,0,0,1,.69.69v6.32a.69.69,0,0,1-.69.69"/></g></g></g><g id="_3_sal" data-name="3 sal"><g id="_3" data-name="3"><g class="cls-9"><path class="cls-7" d="M1163.76,206a15.84,15.84,0,0,1-15.63-16,.7.7,0,0,1,.7-.7h6.54a.69.69,0,0,1,.69.67,8.37,8.37,0,0,0,6.31,7.66.69.69,0,0,1,.51.84.7.7,0,0,1-.85.5,9.78,9.78,0,0,1-7.31-8.28h-5.18a14.43,14.43,0,0,0,14.22,13.93A14.15,14.15,0,0,0,1178,190.3v-.07c0-4.83-2-8.76-5.41-10.81a.71.71,0,0,1-.34-.57.7.7,0,0,1,.3-.6c3.5-2.39,5.43-6.5,5.43-11.56v-.07a13.89,13.89,0,0,0-12.56-13.23.7.7,0,0,1,.14-1.39,15.29,15.29,0,0,1,13.81,14.58v.12c0,5.13-1.84,9.38-5.21,12.09,3.34,2.41,5.23,6.52,5.23,11.44v.07a15.52,15.52,0,0,1-15.67,15.7"/><path class="cls-7" d="M1165.29,199.09a.69.69,0,0,1-.11-1.38,7.57,7.57,0,0,0,6.3-7.32v-.12a7.17,7.17,0,0,0-2-5.41,7.46,7.46,0,0,0-5.67-2h-2.92a.7.7,0,0,1-.7-.69v-6.7a.71.71,0,0,1,.21-.49.7.7,0,0,1,.49-.2h2.92a7.56,7.56,0,0,0,5.7-1.91,7.8,7.8,0,0,0,2.2-5.81,7,7,0,0,0-2.14-5.18,7.52,7.52,0,0,0-5.54-2.06,8.44,8.44,0,0,0-7.83,8,.7.7,0,0,1-.69.68h-6a.69.69,0,0,1-.69-.7c0-8.15,5.8-14.95,13.5-15.8a.68.68,0,0,1,.76.61.69.69,0,0,1-.61.77c-6.77.75-11.93,6.6-12.25,13.73h4.63a9.76,9.76,0,0,1,9.12-8.71,9,9,0,0,1,6.56,2.44,8.36,8.36,0,0,1,2.57,6.19,9.18,9.18,0,0,1-2.62,6.81,8.92,8.92,0,0,1-6.71,2.3h-2.19v5.31h2.19a8.85,8.85,0,0,1,6.69,2.41,8.54,8.54,0,0,1,2.43,6.43v.07a8.89,8.89,0,0,1-7.47,8.71h-.11"/></g></g></g><g id="_4_sal" data-name="4 sal"><g class="cls-10"><path class="cls-7" d="M1162.77,92.24h-15.13a.72.72,0,0,1,0-1.43h14.42V70.43l-12.13,18.22a.71.71,0,1,1-1.19-.79l13.44-20.17a.72.72,0,0,1,.8-.29.71.71,0,0,1,.5.68V91.53a.71.71,0,0,1-.71.71m0,5.82H1140a.71.71,0,0,1-.71-.72v-6a.71.71,0,0,1,.12-.39l23.27-35.67a.72.72,0,0,1,.6-.32h2.35a.71.71,0,0,1,0,1.42h-2l-23,35.18v5h22a.72.72,0,0,1,0,1.43m6.35,11.94h-6.35a.71.71,0,0,1-.71-.71v-8.74a.71.71,0,0,1,1.42,0v8h4.93V97.34a.71.71,0,0,1,.71-.71h4.22V92.24h-4.22a.71.71,0,0,1-.71-.71V55.71a.71.71,0,0,1,1.42,0v35.1h4.22a.71.71,0,0,1,.71.72v5.81a.71.71,0,0,1-.71.72h-4.22v11.23a.71.71,0,0,1-.71.71"/></g></g></svg>
